<svg xmlns="http://www.w3.org/2000/svg" width="280" height="280" viewBox="0 0 280 280" fill="none">
<rect width="280" height="280" fill="white"/>
<path d="M245.347 227.183C245.347 227.183 247.5 227.156 248.933 228.22C248.933 228.22 253.21 219.536 237.855 204.078C237.855 204.078 239.98 203.122 242.769 204.051C242.769 204.051 242.335 190.817 226.395 178.707C226.395 178.707 228.743 177.85 229.91 178.291C229.91 178.291 223.721 166.472 207.62 160.153C207.62 160.153 210.01 158.789 213.038 158.843C213.038 158.843 201.03 144.572 180.167 145.812C180.167 145.812 181.264 144.538 183.495 143.741C183.495 143.741 180.129 141.459 172.105 140.463C167.834 139.511 162.42 139.26 162.42 139.26C164.167 139.211 167.822 138.183 169.953 137.541C178.765 136.596 187.288 134.318 191.398 129.372C191.398 129.372 189.626 129.938 187.095 127.513C187.095 127.513 205.355 125.76 218.674 108.267C218.674 108.267 214.069 110.098 211.32 108.173C211.32 108.173 227.858 101.547 231.789 89.4366C231.789 89.4366 228.655 91.4542 225.002 91.0176C225.002 91.0176 235.111 84.0467 238.883 72.042C238.883 72.042 235.774 73.6968 233.33 72.7071C233.33 72.7071 244.967 64.4218 243.399 52.0184C243.399 52.0184 241.566 54.8332 237.74 53.8502C237.74 53.8502 249.917 40.5623 244.781 28.0627C244.781 28.0627 235.749 26.8938 227.567 34.6484C227.567 34.6484 227.54 32.4965 228.604 31.0633C228.604 31.0633 219.917 26.7886 204.455 42.1388C204.455 42.1388 203.498 40.0137 204.428 37.2258C204.428 37.2258 191.19 37.6602 179.076 53.5949C179.076 53.5949 178.218 51.2481 178.659 50.0815C178.659 50.0815 166.837 56.2686 160.516 72.3644C160.516 72.3644 159.152 69.9751 159.205 66.9476C159.205 66.9476 144.93 78.9524 146.171 99.8089C146.171 99.8089 144.897 98.7117 144.099 96.4814C144.099 96.4814 142.428 98.9446 141.319 104.679C140.233 109.72 139.72 116.78 139.72 116.78C139.749 113.025 137.773 106.46 136.972 103.952C135.778 96.8195 133.511 90.3704 129.405 86.96C129.405 86.96 129.972 88.7313 127.546 91.2616C127.546 91.2616 125.792 73.0071 108.293 59.6924C108.293 59.6924 110.126 64.2964 108.199 67.0439C108.199 67.0439 101.571 50.5114 89.4577 46.5815C89.4577 46.5815 91.4759 49.7142 91.0391 53.3665C91.0391 53.3665 84.0661 43.2606 72.0577 39.4897C72.0577 39.4897 73.713 42.5978 72.7207 45.0409C72.7207 45.0409 64.4329 33.4079 52.0258 34.9753C52.0258 34.9753 54.8414 36.8071 53.8581 40.6317C53.8581 40.6317 40.5662 28.4591 28.0627 33.5937C28.0627 33.5937 26.8935 42.6225 34.6504 50.8025C34.6504 50.8025 32.4978 50.8294 31.0643 49.7657C31.0643 49.7657 26.7882 58.4496 42.1431 73.9073C42.1431 73.9073 40.0174 74.8635 37.2286 73.9342C37.2286 73.9342 37.6632 87.1683 53.6027 99.2782C53.6027 99.2782 51.2552 100.136 50.0882 99.6947C50.0882 99.6947 56.2772 111.514 72.378 117.833C72.378 117.833 69.988 119.197 66.9596 119.143C66.9596 119.143 78.968 133.414 99.8309 132.173C99.8309 132.173 98.7333 133.447 96.5023 134.244C96.5023 134.244 98.0972 135.324 101.695 136.32C106.457 138.123 122.262 138.692 122.262 138.692C119.818 139.106 116.203 140.105 112.471 141.253C102.911 142.048 93.2947 144.274 88.8462 149.628C88.8462 149.628 90.618 149.062 93.1491 151.487C93.1491 151.487 74.889 153.24 61.5702 170.733C61.5702 170.733 66.1756 168.902 68.924 170.827C68.924 170.827 52.3864 177.453 48.4553 189.563C48.4553 189.563 51.589 187.546 55.2424 187.982C55.2424 187.982 45.1334 194.953 41.3614 206.958C41.3614 206.958 44.4704 205.303 46.9142 206.293C46.9142 206.293 35.2776 214.578 36.8456 226.982C36.8456 226.982 38.6779 224.167 42.5037 225.15C42.5037 225.15 30.3273 238.438 35.4636 250.937C35.4636 250.937 44.495 252.106 52.6776 244.352C52.6776 244.352 52.7045 246.504 51.6405 247.937C51.6405 247.937 60.327 252.211 75.7895 236.861C75.7895 236.861 76.7459 238.986 75.8163 241.774C75.8163 241.774 89.0545 241.34 101.168 225.405C101.168 225.405 102.026 227.752 101.585 228.919C101.585 228.919 113.407 222.731 119.728 206.636C119.728 206.636 121.093 209.025 121.039 212.052C121.039 212.052 135.314 200.048 134.073 179.191C134.073 179.191 135.348 180.288 136.145 182.519C136.145 182.519 140.441 176.184 139.816 160.175C140.679 163.498 141.584 166.7 142.417 169.522C143.358 178.354 145.633 186.903 150.595 191.021C150.595 191.021 150.028 189.25 152.454 186.719C152.454 186.719 154.208 204.974 171.707 218.289C171.707 218.289 169.874 213.685 171.801 210.937C171.801 210.937 178.429 227.47 190.542 231.4C190.542 231.4 188.524 228.267 188.961 224.615C188.961 224.615 195.934 234.72 207.942 238.491C207.942 238.491 206.287 235.383 207.279 232.94C207.279 232.94 215.567 244.573 227.974 243.006C227.974 243.006 225.159 241.174 226.142 237.349C226.142 237.349 239.434 249.522 251.937 244.387C251.937 244.387 253.107 235.359 245.35 227.179L245.347 227.183ZM140 145.5C113.474 162.315 60.4032 219.402 60.4032 219.402C68.0191 200.473 107.617 155.161 135.5 139.5C118.411 112.877 61.8345 60.0283 61.8345 60.0283C80.733 67.6261 125.568 107.128 141.319 135C169.677 118.884 221.216 60.0552 221.216 60.0552C218.846 74.971 170.953 127.037 145.5 141.5C161.332 169.782 221.23 220.792 221.23 220.792C206.274 218.416 154.325 170.893 140 145.5Z" fill="url(#paint0_linear_59_34)"/>
<defs>
<linearGradient id="paint0_linear_59_34" x1="31.1225" y1="30.5349" x2="248.426" y2="247.902" gradientUnits="userSpaceOnUse">
<stop offset="0.2" stop-color="#00FF85"/>
<stop offset="1" stop-color="#00E0FF"/>
</linearGradient>
</defs>
</svg>